<svg width="1060" height="215" fill="none" xmlns="http://www.w3.org/2000/svg">
<path d="M1053.7 196.734V175.944H1050.6V98.79H1042.1V175.944H1039.7V142.834H1023.3V175.944H1018.4V126.202H1002.1V175.944H996.2V127.434H988.2V118.04H969.1V134.364H964.4V175.944H961.9V165.472H957.2V92.784H955.2V165.472H945.6V175.944H940.7V153.768H924.4V175.944H918.4V154.538H908.6V138.06H906.5V154.538H902.1V161.468H889.5V175.944H883.8V158.08H882.8V175.944H878.7V195.04H868.6V160.698H867.1V120.042H864.3V160.698H857.8V176.252H845.7V138.06H825.4V84.16H820.7V56.44H818.2V84.16H815.9V138.06H812.3V152.074H807.8V155.154H812.3V166.55H806V178.87H801.7V142.372H798.2V157.772H781.7V96.172H771.9V58.134H765.7V51.05H761V58.134H756.7V96.172H747V51.974H743V41.502H737.6V51.974H734.5V1H732.5V51.974H727V96.172H721.5V121.428H714.4V196.734H708.2H705.6H702.7V175.944H699.6V98.79H691.1V175.944H688.7V142.834H672.3V175.944H667.5V126.202H651.1V175.944H645.2V127.434H637.2V118.04H618.1V134.364H613.4V175.944H610.9V165.472H606.2V92.784H604.2V165.472H594.6V175.944H589.7V153.768H573.4V175.944H567.4V154.538H557.6V138.06H555.5V154.538H551.1V161.468H538.5V175.944H532.8V158.08H531.8V175.944H527.7V195.04H517.6V160.698H516.1V120.042H513.3V160.698H506.8V176.252H494.7V138.06H474.4V84.16H469.7V56.44H467.2V84.16H464.9V138.06H461.3V152.074H456.8V155.154H461.3V166.55H455V178.87H450.7V142.372H447.2V157.772H430.7V96.172H420.9V58.134H414.7V51.05H410V58.134H405.7V96.172H396V51.974H392V41.502H386.6V51.974H383.5V1H381.5V51.974H376V96.172H370.5V121.428H367.6V98.79H359.1V175.944H356.7V142.834H340.3V175.944H335.5V126.202H319.1V175.944H313.2V127.434H305.2V118.04H286.1V134.364H281.4V175.944H278.9V165.472H274.2V92.784H272.2V165.472H262.6V175.944H257.7V153.768H241.4V175.944H235.4V154.538H225.6V138.06H223.5V154.538H219.1V161.468H206.5V175.944H200.8V158.08H199.8V175.944H195.7V195.04H185.6V160.698H184.1V120.042H181.3V160.698H174.8V176.252H162.7V138.06H142.4V84.16H137.7V56.44H135.2V84.16H132.9V138.06H129.3V152.074H124.8V155.154H129.3V166.55H123V178.87H118.7V142.372H115.2V157.772H98.7V96.172H88.9V58.134H82.7V51.05H78V58.134H73.7V96.172H64V51.974H60V41.502H54.6V51.974H51.5V1H49.5V51.974H44V96.172H38.5V121.428H31.4V196.734H22.6V213.366H1V213.674H22.6H44.2H53.1H59.4H354.6H376.2H705.6H708.2H1059.2V196.734H1053.7Z" stroke="#98C841" stroke-opacity="0.27" stroke-miterlimit="10"/>
</svg>
